<svg xmlns="http://www.w3.org/2000/svg" xmlns:xlink="http://www.w3.org/1999/xlink" viewBox="0 0 128 128"><defs><style>.a{isolation:isolate;}.b{fill:#003561;}.c{opacity:0.25;mix-blend-mode:multiply;}.d{fill:#fff;}.e{fill:none;stroke:#fff;stroke-miterlimit:10;stroke-width:5px;}</style></defs><g class="a"><circle class="b" cx="64" cy="64" r="63.5"/><image class="c" width="106" height="93" transform="translate(10 17)" xlink:href="camera-icon1.png"/><rect class="d" x="32.5" y="33" width="9" height="6" rx="3"/><rect class="e" x="53.5" y="28" width="21" height="11" rx="3"/><path class="d" d="M95.5,39h-63a12,12,0,0,0-12,12V88a12,12,0,0,0,12,12h63a12,12,0,0,0,12-12V51A12,12,0,0,0,95.5,39ZM65,90.88A20.41,20.41,0,0,1,44.62,70.5a19.81,19.81,0,0,1,.6-4.78l.61.61A19.58,19.58,0,0,0,69.17,89.67l.61.61A19.81,19.81,0,0,1,65,90.88ZM65,89A18.5,18.5,0,1,1,83.5,70.5,18.5,18.5,0,0,1,65,89ZM83.81,78.31l-.58-.58A19.6,19.6,0,0,0,57.77,52.27l-.58-.58A20.12,20.12,0,0,1,65,50.13,20.4,20.4,0,0,1,85.38,70.5,20.13,20.13,0,0,1,83.81,78.31Zm17.69-20a1.59,1.59,0,0,1-1.58,1.59H87.08a1.59,1.59,0,0,1-1.58-1.59V46.58A1.58,1.58,0,0,1,87.08,45H99.92a1.58,1.58,0,0,1,1.58,1.58Z"/></g></svg>