<svg xmlns="http://www.w3.org/2000/svg" xmlns:xlink="http://www.w3.org/1999/xlink" viewBox="0 0 128 128"><defs><style>.a,.f{fill:#fff;}.b{fill:none;}.c{isolation:isolate;}.d{fill:#003561;}.e{opacity:0.25;mix-blend-mode:multiply;}.f{stroke:#fff;stroke-miterlimit:10;stroke-width:2px;}.g{clip-path:url(#a);}.h{mask:url(#b);}.i{clip-path:url(#c);}.j{mask:url(#d);}</style><clipPath id="a"><circle class="b" cx="63.68" cy="68.08" r="42.98"/></clipPath><mask id="b" x="21.32" y="25.49" width="103.08" height="100.28" maskUnits="userSpaceOnUse"><circle class="a" cx="64.3" cy="68.47" r="42.98"/></mask><clipPath id="c"><circle class="b" cx="63.68" cy="67.23" r="42.98"/></clipPath><mask id="d" x="4.28" y="10.31" width="103.08" height="99.58" maskUnits="userSpaceOnUse"><circle class="a" cx="64.38" cy="66.91" r="42.98"/></mask></defs><g class="c"><circle class="d" cx="64" cy="64" r="63.5"/><image class="e" width="132" height="114" transform="translate(-1 8)" xlink:href="cameracoverHeadphone-icon1.png"/><path class="f" d="M14.88,68.61a50.4,50.4,0,0,1,.7-8.29H8.5V73.08h6.59C15,71.61,14.88,70.12,14.88,68.61Z"/><path class="f" d="M113.7,60.32a50.4,50.4,0,0,1,.7,8.29c0,1.51-.08,3-.21,4.47h5.31V60.32Z"/><path class="a" d="M17.18,56.49a48.63,48.63,0,0,1,94.18,0h3a51.56,51.56,0,0,0-100.28,0Z"/><g class="g"><g class="h"><g class="e"><path d="M24.87,90.13l22-22L62.6,85.77l4.19-5.42,2.45,2.45,28-28,6.12-6.11L123.4,85.24,63.3,125.77,37.44,108.3l-14-15.37Z"/></g><path class="a" d="M25.87,90.13l22-22L63.6,85.77l4.19-5.42,2.45,2.45,28-28,6.12-6.11L124.4,85.24,64.3,125.77,38.44,108.3l-14-15.37Z"/></g></g><g class="i"><g class="j"><g class="e"><path d="M103.81,47l-22,22L66.08,51.31l-4.2,5.42-2.44-2.45-27.95,28-6.12,6.11L5.28,51.84l60.1-40.53L91.24,28.78l14,15.37Z"/></g><path class="a" d="M102.81,46l-22,22L65.08,50.31l-4.2,5.42-2.44-2.45-27.95,28-6.12,6.11L4.28,50.84l60.1-40.53L90.24,27.78l14,15.37Z"/></g></g></g></svg>