<?xml version="1.0" encoding="UTF-8"?>
<svg id="Ebene_1" data-name="Ebene 1" xmlns="http://www.w3.org/2000/svg" viewBox="0 0 128 128">
  <defs>
    <style>
      .cls-1 {
        fill: #fff;
      }
    </style>
  </defs>
  <path class="cls-1" d="M62.13,29.7l6.41,7.89-4.19,11.15h-28.85l-3.57,13.25h29.77l-9.68,37.23h-14.3l4.93-18.61h-14.92l-5.67,21.2c-.66,2.71-.04,4.93,1.85,6.65,1.56,1.48,3.82,2.22,6.78,2.22h23.79c2.71,0,5.05-.62,7.03-1.85,2.3-1.39,3.74-3.24,4.32-5.55L85.55,29.7h-23.42Z"/>
  <path d="M104.13,20.35c1.84,1.81,2.45,4.16,1.81,7.04l-10.16,35.69c-.71,2.45-2.22,4.35-4.53,5.67-2.14,1.33-4.61,1.98-7.4,1.94l-22.63-.31-8.69,30.66-15.39-.21L57.87,27.23l-7.75-9.92,47.05,.65c2.71,.04,5.03,.83,6.96,2.39Zm-14.37,9.59l-17.04-.23-8.15,28.63,17.04,.23,8.15-28.63Z"/>
</svg>