<svg xmlns="http://www.w3.org/2000/svg" xmlns:xlink="http://www.w3.org/1999/xlink" viewBox="0 0 2048 2048"><defs><style>.a{isolation:isolate;}.b{opacity:0.25;mix-blend-mode:multiply;}.c{fill:none;stroke:#fff;stroke-linecap:round;stroke-miterlimit:10;stroke-width:50px;}</style></defs><g class="a"><image class="b" width="1360" height="1152" transform="translate(351 455)" xlink:href="menuicon1.png"/><path class="c" d="M1655.81,488h-1045c-106,0-192,86-192,192h0a8,8,0,0,0,8,8h1045c106,0,192-86,192-192h0A8,8,0,0,0,1655.81,488Z"/><path class="c" d="M1621.19,924h-1045c-106,0-192,86-192,192h0a8,8,0,0,0,8,8h1045c106,0,192-86,192-192h0A8,8,0,0,0,1621.19,924Z"/><path class="c" d="M1621.19,1360h-1045c-106,0-192,86-192,192h0a8,8,0,0,0,8,8h1045c106,0,192-86,192-192h0A8,8,0,0,0,1621.19,1360Z"/></g></svg>