<svg xmlns="http://www.w3.org/2000/svg" xmlns:xlink="http://www.w3.org/1999/xlink" viewBox="0 0 128 128"><defs><style>.a{isolation:isolate;}.b{fill:#003561;}.c{opacity:0.25;mix-blend-mode:multiply;}.d{fill:#fff;}</style></defs><g class="a"><circle class="b" cx="64" cy="64" r="63.5"/><image class="c" width="94" height="99" transform="translate(17 18)" xlink:href="modify-icon1.png"/><g class="c"><path d="M79.85,51.39a8.21,8.21,0,0,1,0-11.59L90.06,29.59A16.73,16.73,0,0,0,69.5,51.47a8.11,8.11,0,0,0-3.33,2L64.1,55.55a12.9,12.9,0,0,1,3.83,1l-2.51,2.51a9.55,9.55,0,0,0-11.7,11.7L50.88,73.6a12.9,12.9,0,0,1-1-3.83L28.5,91.16a8.2,8.2,0,0,0,11.59,11.59L61.47,81.36a12.9,12.9,0,0,1-3.83-1l2.84-2.84a9.54,9.54,0,0,0,11.7-11.69l2.51-2.52a12.9,12.9,0,0,1,1,3.83l2.07-2.07a8.08,8.08,0,0,0,2.09-3.61,16.73,16.73,0,0,0,21.53-20l-9.94,9.93A8.21,8.21,0,0,1,79.85,51.39ZM68.33,73.66a7.42,7.42,0,1,1,0-10.5A7.43,7.43,0,0,1,68.33,73.66Z"/></g><path class="d" d="M79.85,48.39a8.21,8.21,0,0,1,0-11.59L90.06,26.59A16.73,16.73,0,0,0,69.5,48.47a8.11,8.11,0,0,0-3.33,2L64.1,52.55a12.9,12.9,0,0,1,3.83,1l-2.51,2.51a9.55,9.55,0,0,0-11.7,11.7L50.88,70.6a12.9,12.9,0,0,1-1-3.83L28.5,88.16A8.2,8.2,0,0,0,40.09,99.75L61.47,78.36a12.9,12.9,0,0,1-3.83-1l2.84-2.84a9.54,9.54,0,0,0,11.7-11.69l2.51-2.52a12.9,12.9,0,0,1,1,3.83l2.07-2.07a8.08,8.08,0,0,0,2.09-3.61,16.73,16.73,0,0,0,21.53-20l-9.94,9.93A8.21,8.21,0,0,1,79.85,48.39ZM68.33,70.66a7.42,7.42,0,1,1,0-10.5A7.43,7.43,0,0,1,68.33,70.66Z"/></g></svg>