<svg xmlns="http://www.w3.org/2000/svg" xmlns:xlink="http://www.w3.org/1999/xlink" viewBox="0 0 128 128"><defs><style>.a{isolation:isolate;}.b{fill:#003561;}.c{opacity:0.25;mix-blend-mode:multiply;}.d{fill:#fff;}</style></defs><g class="a"><circle class="b" cx="64" cy="64" r="63.5"/><g class="c"><polygon points="95.81 36.5 60.52 71.79 57.77 69.04 63.23 63.58 64.7 65.05 66.73 57.5 59.17 59.52 60.47 60.82 55.02 66.28 54.33 65.6 55.43 64.49 55.92 64.97 56.58 62.5 54.11 63.16 54.53 63.59 53.43 64.69 51.39 62.65 62.8 51.24 65.83 54.27 69.99 38.76 54.48 42.92 57.15 45.59 45.73 57 42.06 53.33 18.66 76.73 21.69 79.77 42.06 59.4 60.52 77.86 95.81 42.57 106.31 53.07 109.34 50.03 95.81 36.5"/></g><polygon class="d" points="95.81 34.5 60.52 69.79 57.77 67.04 63.23 61.58 64.7 63.05 66.73 55.5 59.17 57.52 60.47 58.82 55.02 64.28 54.33 63.6 55.43 62.49 55.92 62.97 56.58 60.5 54.11 61.16 54.53 61.59 53.43 62.69 51.39 60.65 62.8 49.24 65.83 52.27 69.99 36.76 54.48 40.92 57.15 43.59 45.73 55 42.06 51.33 18.66 74.73 21.69 77.77 42.06 57.4 60.52 75.86 95.81 40.57 106.31 51.07 109.34 48.03 95.81 34.5"/><image class="c" width="94" height="61" transform="translate(18 40)" xlink:href="raise-icon1.png"/><polygon class="d" points="96.26 45.32 59.88 81.71 41.41 63.24 23.99 80.67 23.99 93.5 104.99 93.5 104.99 54.04 96.26 45.32"/></g></svg>