<svg xmlns="http://www.w3.org/2000/svg" xmlns:xlink="http://www.w3.org/1999/xlink" viewBox="0 0 128 128"><defs><style>.a{isolation:isolate;}.b{fill:#003561;}.c{opacity:0.25;mix-blend-mode:multiply;}.d,.f{fill:#fff;}.e{stroke:#000;}.e,.f{stroke-miterlimit:10;}.f{stroke:#003561;}</style></defs><g class="a"><circle class="b" cx="64" cy="64" r="63.5"/><image class="c" width="75" height="79" transform="translate(45 14)" xlink:href="star-icon1.png"/><path class="d" d="M69.38,33.32c19.32,0,35,12.29,35,27.45,0,12.91-11.37,23.74-26.68,26.66.7,0,1.39.07,2.1.07,19.31,0,35-16.12,35-36s-15.66-36-35-36c-15.38,0-28.42,10.22-33.11,24.41A40.89,40.89,0,0,1,69.38,33.32Z"/><image class="c" width="105" height="108" transform="translate(12 12)" xlink:href="star-icon2.png"/><path class="d" d="M78.76,89.5c-27.89,0-50.5-17.24-50.5-38.5,0-18.12,16.42-33.3,38.53-37.4-1-.06-2-.1-3-.1a50.5,50.5,0,1,0,47.81,66.75A60.28,60.28,0,0,1,78.76,89.5Z"/><g class="c"><polygon class="e" points="85.79 59.7 88.36 64.91 94.12 65.75 89.95 69.81 90.94 75.54 85.79 72.83 80.64 75.54 81.63 69.81 77.46 65.75 83.22 64.91 85.79 59.7"/><polygon class="e" points="80.34 82.67 84.78 91.66 94.71 93.1 87.53 100.11 89.22 109.99 80.34 105.33 71.46 109.99 73.16 100.11 65.97 93.1 75.9 91.66 80.34 82.67"/><polygon class="e" points="53.1 22.55 63.18 42.96 85.7 46.23 69.4 62.12 73.25 84.55 53.1 73.96 32.96 84.55 36.81 62.12 20.51 46.23 43.03 42.96 53.1 22.55"/></g><polygon class="f" points="84.79 58.7 87.36 63.91 93.12 64.75 88.95 68.81 89.94 74.54 84.79 71.83 79.64 74.54 80.63 68.81 76.46 64.75 82.22 63.91 84.79 58.7"/><polygon class="f" points="79.34 81.67 83.78 90.66 93.71 92.1 86.53 99.11 88.22 108.99 79.34 104.33 70.46 108.99 72.16 99.11 64.97 92.1 74.9 90.66 79.34 81.67"/><polygon class="f" points="52.1 21.55 62.18 41.96 84.7 45.23 68.4 61.12 72.25 83.55 52.1 72.96 31.96 83.55 35.81 61.12 19.51 45.23 42.03 41.96 52.1 21.55"/></g></svg>