<svg xmlns="http://www.w3.org/2000/svg" viewBox="0 0 128 128"><defs><style>.a{fill:#003561;}.b{fill:#fff;}</style></defs><circle class="a" cx="64" cy="64" r="63.5"/><path class="b" d="M64,113.5A49.5,49.5,0,1,1,113.5,64,49.56,49.56,0,0,1,64,113.5Zm0-94A44.5,44.5,0,1,0,108.5,64,44.55,44.55,0,0,0,64,19.5Z"/><path class="b" d="M64,103.81h0c-.64,0-1.27,0-1.91,0l.34-7c.52,0,1,0,1.57,0ZM82.79,99.1l-3.3-6.18c.24-.12.47-.25.69-.38l3.47,6.08C83.37,98.79,83.08,99,82.79,99.1Zm-39.2-.92-.84-.51,3.73-5.93.69.43Zm54.06-12.9-5.93-3.73c.15-.23.29-.46.43-.7l6,3.61ZM29.4,83.69c-.17-.29-.32-.57-.48-.86l6.17-3.31c.12.23.25.47.39.7ZM103.76,66l-7-.34c0-.53,0-1.07,0-1.61v-.16h7V64C103.81,64.65,103.79,65.3,103.76,66ZM24.19,64.08v-.14c0-.56,0-1.19,0-1.8l7,.32c0,.51,0,1,0,1.54ZM92.88,48.42l-.39-.7,6.07-3.48.48.86ZM35.81,47.2l-6-3.58.51-.84,5.92,3.74Zm45.64-11-.69-.41,3.59-6,.84.52Zm-33.7-.72-3.47-6.07c.28-.17.57-.33.86-.48l3.31,6.17C48.21,35.23,48,35.36,47.75,35.49Zm17.76-4.26c-.5,0-1,0-1.51,0h-.12v-7H64c.61,0,1.22,0,1.82,0Z"/><circle class="b" cx="63.76" cy="65.35" r="3.87"/><rect class="b" x="49.26" y="48.1" width="29.5" height="4" transform="translate(12.83 113.25) rotate(-89.02)"/><rect class="b" x="64.26" y="62.85" width="31.02" height="4" transform="translate(-2.05 2.6) rotate(-1.85)"/><polygon class="b" points="102.38 75.79 90.62 55.42 78.86 75.79 84.38 75.79 84.38 114.42 96.38 114.42 96.38 75.79 102.38 75.79"/><path class="a" d="M98.38,116.42h-16V77.79h-7L90.62,51.42l15.23,26.37H98.38Zm-12-4h8V73.79h4.54l-8.3-14.37L82.33,73.79h4Z"/></svg>